<svg width="50" height="50" viewBox="0 0 50 50" fill="none" xmlns="http://www.w3.org/2000/svg">
<path d="M25.0072 0C11.4172 0 0.387207 11.03 0.387207 24.62C0.387207 38.22 11.4172 49.24 25.0072 49.24C38.5972 49.24 49.6272 38.22 49.6272 24.62C49.6372 11.03 38.6072 0 25.0072 0ZM31.5272 24.52H27.2672C27.2672 31.33 27.2672 39.73 27.2672 39.73H20.9472C20.9472 39.73 20.9472 31.42 20.9472 24.52H17.9472V19.15H20.9472V15.67C20.9472 13.18 22.1272 9.29 27.3272 9.29L32.0072 9.31V14.52C32.0072 14.52 29.1572 14.52 28.6072 14.52C28.0572 14.52 27.2672 14.8 27.2672 15.98V19.14H32.0872L31.5272 24.52Z" fill="white"/>
</svg>
