<svg width="200" height="51" viewBox="0 0 200 51" fill="none" xmlns="http://www.w3.org/2000/svg">
<path d="M164.328 28.1121H166.136V37.0987H167.892V28.1121H169.7V26.5788H164.328V28.1121Z" fill="white"/>
<path d="M175.071 20.6385C175.305 20.6385 175.498 20.5776 175.64 20.4456C175.782 20.3136 175.853 20.1308 175.853 19.9074V15.2465C175.853 15.0638 175.782 14.9114 175.64 14.7896C175.498 14.6677 175.315 14.617 175.081 14.617C174.868 14.617 174.695 14.6779 174.563 14.7896C174.431 14.9013 174.36 15.0536 174.36 15.2465V19.9074C174.36 20.1409 174.421 20.3237 174.543 20.4456C174.665 20.5776 174.838 20.6385 175.071 20.6385Z" fill="white"/>
<path d="M178.93 29.2392C178.686 29.2392 178.452 29.3002 178.209 29.422C177.975 29.5439 177.752 29.7266 177.549 29.9602V26.5686H175.985V37.0987H177.549V36.4996C177.752 36.7433 177.975 36.9159 178.209 37.0276C178.442 37.1393 178.716 37.2002 179.021 37.2002C179.478 37.2002 179.833 37.0581 180.077 36.7636C180.321 36.4691 180.443 36.0426 180.443 35.4943V31.1889C180.443 30.5491 180.311 30.0719 180.057 29.7368C179.793 29.4118 179.417 29.2392 178.93 29.2392ZM178.848 35.2912C178.848 35.5451 178.808 35.7177 178.716 35.8294C178.625 35.9411 178.493 35.9919 178.3 35.9919C178.168 35.9919 178.046 35.9614 177.924 35.9106C177.802 35.8599 177.681 35.7583 177.559 35.6365V30.803C177.66 30.6913 177.772 30.6101 177.874 30.5694C177.985 30.5187 178.087 30.4882 178.199 30.4882C178.412 30.4882 178.574 30.5593 178.686 30.6913C178.798 30.8233 178.848 31.0264 178.848 31.2904V35.2912Z" fill="white"/>
<path d="M173.264 35.2405C173.122 35.4029 172.959 35.5451 172.787 35.6568C172.614 35.7685 172.462 35.8193 172.35 35.8193C172.208 35.8193 172.096 35.7786 172.035 35.6974C171.974 35.6162 171.944 35.4842 171.944 35.3014V29.3408H170.39V35.8294C170.39 36.2965 170.482 36.6316 170.664 36.8753C170.847 37.1089 171.111 37.2206 171.477 37.2206C171.771 37.2206 172.066 37.1393 172.38 36.9769C172.695 36.8042 172.99 36.5707 173.274 36.2559V37.1089H174.828V29.3408H173.274V35.2405H173.264Z" fill="white"/>
<path d="M175 1C161.2 1 150 12.2002 150 26C150 39.8099 161.2 51 175 51C188.8 51 200 39.8099 200 26C200.01 12.2002 188.81 1 175 1ZM179.041 13.3477H180.788V19.9074C180.788 20.1105 180.829 20.2526 180.9 20.344C180.971 20.4354 181.093 20.4862 181.255 20.4862C181.387 20.4862 181.55 20.4253 181.742 20.3034C181.935 20.1816 182.118 20.0292 182.281 19.8363V13.3477H184.027V21.8976H182.281V20.9533C181.966 21.2985 181.631 21.5727 181.275 21.7453C180.93 21.9281 180.595 22.0195 180.26 22.0195C179.854 22.0195 179.549 21.8875 179.346 21.6336C179.143 21.3798 179.041 21.0041 179.041 20.4862V13.3477ZM172.553 15.3075C172.553 14.6474 172.786 14.1194 173.253 13.7234C173.721 13.3375 174.36 13.1344 175.152 13.1344C175.873 13.1344 176.472 13.3477 176.929 13.7539C177.386 14.1702 177.62 14.6982 177.62 15.3582V19.7754C177.62 20.5065 177.396 21.0853 176.939 21.5016C176.483 21.918 175.863 22.121 175.071 22.121C174.31 22.121 173.69 21.9078 173.233 21.4813C172.776 21.0447 172.543 20.4659 172.543 19.7449V15.3075H172.553ZM167.801 10.3115L169.08 14.9419H169.202L170.42 10.3115H172.421L170.136 17.0946V21.9078H168.166V17.3079L165.82 10.3115H167.801ZM190.688 34.7124C190.688 37.8095 188.18 40.3176 185.083 40.3176H165.607C162.51 40.3176 160.002 37.8095 160.002 34.7124V30.2039C160.002 27.1068 162.51 24.5987 165.607 24.5987H185.083C188.18 24.5987 190.688 27.1068 190.688 30.2039V34.7124Z" fill="white"/>
<path d="M183.621 29.1478C182.93 29.1478 182.362 29.3611 181.925 29.7876C181.489 30.214 181.265 30.7624 181.265 31.4326V34.9257C181.265 35.6771 181.468 36.266 181.864 36.6824C182.26 37.1089 182.809 37.3221 183.509 37.3221C184.281 37.3221 184.86 37.119 185.246 36.723C185.642 36.3168 185.835 35.7177 185.835 34.9257V34.5296H184.24V34.885C184.24 35.342 184.19 35.6365 184.088 35.7685C183.987 35.9005 183.804 35.9716 183.55 35.9716C183.306 35.9716 183.123 35.8903 183.022 35.738C182.92 35.5755 182.87 35.2912 182.87 34.885V33.4228H185.835V31.4427C185.835 30.7116 185.642 30.143 185.266 29.7469C184.87 29.3408 184.332 29.1478 183.621 29.1478ZM184.23 32.2043H182.859V31.4224C182.859 31.0975 182.91 30.8639 183.022 30.7218C183.134 30.5796 183.306 30.5085 183.55 30.5085C183.783 30.5085 183.956 30.5796 184.068 30.7218C184.179 30.8538 184.23 31.0975 184.23 31.4224V32.2043Z" fill="white"/>
<path d="M100.007 1C86.4172 1 75.3872 12.03 75.3872 25.62C75.3872 39.22 86.4172 50.24 100.007 50.24C113.597 50.24 124.627 39.22 124.627 25.62C124.637 12.03 113.607 1 100.007 1ZM106.527 25.52H102.267C102.267 32.33 102.267 40.73 102.267 40.73H95.9472C95.9472 40.73 95.9472 32.42 95.9472 25.52H92.9472V20.15H95.9472V16.67C95.9472 14.18 97.1272 10.29 102.327 10.29L107.007 10.31V15.52C107.007 15.52 104.157 15.52 103.607 15.52C103.057 15.52 102.267 15.8 102.267 16.98V20.14H107.087L106.527 25.52Z" fill="white"/>
<path d="M25.0193 0.625061C11.2224 0.625061 0.0244141 11.823 0.0244141 25.62C0.0244141 39.4271 11.2224 50.6149 25.0193 50.6149C38.8264 50.6149 50.0143 39.4271 50.0143 25.62C50.0244 11.823 38.8264 0.625061 25.0193 0.625061ZM37.6183 20.5845C37.6285 20.8586 37.6386 21.1225 37.6386 21.3966C37.6386 29.7215 31.3036 39.3256 19.7097 39.3256C16.1564 39.3256 12.8366 38.2799 10.0549 36.4931C10.5523 36.554 11.0498 36.5844 11.5574 36.5844C14.5117 36.5844 17.2224 35.5794 19.3848 33.8839C16.6234 33.8332 14.2985 32.0159 13.4965 29.5083C13.8823 29.5794 14.2782 29.62 14.6843 29.62C15.263 29.62 15.8112 29.5388 16.3493 29.3966C13.466 28.818 11.2934 26.2697 11.2934 23.224C11.2934 23.1936 11.2934 23.1733 11.2934 23.1428C12.1462 23.6098 13.1107 23.8941 14.1462 23.9347C12.4508 22.7976 11.3442 20.8789 11.3442 18.686C11.3442 17.5286 11.6589 16.4525 12.197 15.5185C15.3036 19.3256 19.9432 21.8332 25.1818 22.0971C25.0701 21.6403 25.0193 21.153 25.0193 20.6657C25.0193 17.1834 27.8417 14.3611 31.3239 14.3611C33.1412 14.3611 34.7757 15.1225 35.9229 16.3509C37.3544 16.0667 38.7046 15.5489 39.9229 14.818C39.4559 16.29 38.4508 17.5286 37.1513 18.3002C38.4305 18.1479 39.6386 17.8129 40.7655 17.3053C39.9229 18.5845 38.8467 19.7012 37.6183 20.5845Z" fill="white"/>
</svg>
