<svg width="1440" height="2649" viewBox="0 0 1440 2649" fill="none" xmlns="http://www.w3.org/2000/svg">
<rect y="1618.07" width="1440" height="810" fill="#9E9E9E"/>
<rect y="810" width="540.742" height="406.99" fill="#F37626"/>
<path d="M1038.28 1618.21C1260.3 1618.21 1440.28 1799.53 1440.28 2023.21C1440.28 2246.88 1260.3 2428.21 1038.28 2428.21L1038.28 1618.21Z" fill="#F37626"/>
<path d="M540.742 1620.99C319.272 1620.99 139.735 1440.11 139.735 1216.99C139.735 993.867 319.272 812.99 540.742 812.99L540.742 1620.99Z" fill="#9E9E9E"/>
<rect y="572.778" width="920" height="239.222" fill="#F37626"/>
<rect opacity="0.2" x="900" width="540" height="815.125" fill="#9E9E9E"/>
<circle cx="-0.000183105" cy="572.778" r="205.346" stroke="#F37626" stroke-width="11" stroke-dasharray="1 6"/>
<circle cx="-4.57764e-05" cy="572.778" r="103.412" stroke="#F37626" stroke-dasharray="12 6"/>
<circle cx="-0.00038147" cy="572.778" r="155.389" stroke="#F37626"/>
<path d="M205.346 572.778C205.346 686.188 113.41 778.124 -0.000183105 778.124C-113.41 778.124 -205.347 686.188 -205.347 572.778" stroke="white" stroke-width="6" stroke-dasharray="1 6"/>
<path d="M103.912 572.778C103.912 630.167 57.3887 676.689 -4.57764e-05 676.689C-57.3888 676.689 -103.912 630.167 -103.912 572.778" stroke="white" stroke-dasharray="12 6"/>
<path d="M155.888 572.778C155.888 658.873 86.0946 728.667 -0.00038147 728.667C-86.0954 728.667 -155.889 658.873 -155.889 572.778" stroke="white"/>
<circle cx="-0.000183105" cy="2436.67" r="205.346" stroke="white" stroke-width="11" stroke-dasharray="1 6"/>
<circle cx="-4.57764e-05" cy="2436.67" r="103.412" stroke="white" stroke-dasharray="12 6"/>
<circle cx="-0.00038147" cy="2436.67" r="155.389" stroke="white"/>
<path d="M205.346 2436.67C205.346 2550.08 113.41 2642.01 -0.000183105 2642.01C-113.41 2642.01 -205.347 2550.08 -205.347 2436.67" stroke="white" stroke-width="6" stroke-dasharray="1 6"/>
<path d="M103.912 2436.67C103.912 2494.06 57.3887 2540.58 -4.57764e-05 2540.58C-57.3888 2540.58 -103.912 2494.06 -103.912 2436.67" stroke="white" stroke-dasharray="12 6"/>
<path d="M155.888 2436.67C155.888 2522.76 86.0946 2592.56 -0.00038147 2592.56C-86.0954 2592.56 -155.889 2522.76 -155.889 2436.67" stroke="white"/>
</svg>
