<svg id="Layer_1" data-name="Layer 1" xmlns="http://www.w3.org/2000/svg" width="299.99"
     height="55.16" viewBox="0 0 299.99 55.16">
    <title>jupytercon_logo_2_color</title>
    <path d="M12.65,45.69c0,6.76-2.12,9.34-7.81,9.34C1.39,55,0,54.5,0,53.24a1.36,1.36,0,0,1,1.33-1.39h.06a2,2,0,0,1,.73.13,10.19,10.19,0,0,0,2.05.27,4.48,4.48,0,0,0,4.37-2.58,8.37,8.37,0,0,0,.53-3.78V16.49c0-.93-.4-1.32-1.32-1.32H5c-1.06,0-1.66-.53-1.66-1.39s.6-1.32,1.66-1.32h6.09c1.13,0,1.59.46,1.59,1.59Zm.27-43a2.66,2.66,0,0,1-2.65,2.65A2.77,2.77,0,0,1,7.55,2.65,2.66,2.66,0,0,1,10.2,0a2.69,2.69,0,0,1,2.71,2.67s0,0,0,.05Z"
          transform="translate(0 0)" fill="#f37626"/>
    <path d="M43.81,37.62c-1.39,4.3-5,6.49-10.93,6.49-3.64,0-6.29-.93-8.21-3S22,36.89,22,32V16.49c0-.93-.4-1.32-1.32-1.32H18c-1.06,0-1.72-.53-1.72-1.39s.66-1.32,1.72-1.32h6c1.13,0,1.59.46,1.59,1.59V32c0,6.29,2.65,9.27,8.28,9.27,6.56,0,9.93-4.17,9.93-12.25V16.49c0-.93-.4-1.32-1.32-1.32H39.7c-1.06,0-1.66-.53-1.66-1.39s.6-1.32,1.66-1.32h6.09c1.13,0,1.59.46,1.59,1.59v25.1c0,.93.4,1.32,1.32,1.32h2.72c1.13,0,1.72.53,1.72,1.39s-.66,1.32-1.72,1.32h-6c-1.13,0-1.59-.46-1.59-1.59Z"
          transform="translate(0 0)" fill="#f37626"/>
    <path d="M60.91,19.47c1.52-5.1,5.63-7.95,11.52-7.95,9.14,0,14.64,6,14.64,16.09S81.51,44.1,72.57,44.1c-5.76,0-9.87-2.78-11.66-8V50.26c0,1,.4,1.39,1.32,1.39H65c1.13,0,1.72.53,1.72,1.39S66,54.37,65,54.37H53.3c-1.06,0-1.72-.53-1.72-1.39s.66-1.32,1.72-1.32H56c.93,0,1.32-.4,1.32-1.39V16.49c0-.93-.4-1.32-1.32-1.32H53.3c-1.06,0-1.72-.53-1.72-1.39s.66-1.32,1.72-1.32h6c1.13,0,1.59.46,1.59,1.59ZM61,27.55c0,4.7.86,7.62,3,10.13a10,10,0,0,0,7.95,3.64c7,0,11.46-5.36,11.46-13.58S79,14.3,72,14.3,61,19.14,61,27.55Z"
          transform="translate(0 0)" fill="#f37626"/>
    <path d="M103.08,34.77c.4,1,.73,1.85,1.92,4.9a23.08,23.08,0,0,1,.93-2.25l1-2.25L114.61,17a2.3,2.3,0,0,0,.2-.79c0-.6-.53-1-1.39-1h-2.25c-1.06,0-1.66-.53-1.66-1.39s.6-1.32,1.66-1.32h9.4c1.13,0,1.72.53,1.72,1.39s-.6,1.32-1.72,1.32h-.73c-.79,0-1,.2-1.32.86L105,47.35c-2.72,6.22-4.5,7.81-8.87,7.81-2.72,0-4.37-.73-4.37-1.86A1.34,1.34,0,0,1,93,51.91h0a6.72,6.72,0,0,1,1.66.33,3.29,3.29,0,0,0,.93.07c2.65,0,4.17-1.26,5.63-4.77L102.75,44a1.76,1.76,0,0,0,.2-.66,1.49,1.49,0,0,0-.2-.66L91,16c-.26-.73-.53-.86-1.32-.86h-1.1c-1.06,0-1.66-.53-1.66-1.39s.6-1.32,1.66-1.32h9.93c1.06,0,1.66.46,1.66,1.39s-.6,1.32-1.66,1.32H96.33c-.8,0-1.33.4-1.33,1a1.76,1.76,0,0,0,.2.79Z"
          transform="translate(0 0)" fill="#f37626"/>
    <path d="M133.22,34.7c0,3.25.13,4.11.86,5.1a3.89,3.89,0,0,0,3.18,1.52A3.68,3.68,0,0,0,141,38.48a8.15,8.15,0,0,0,.46-2.58,1.41,1.41,0,0,1,1.43-1.39h0c1,0,1.52.73,1.52,2a9.56,9.56,0,0,1-1.19,4.24A6.74,6.74,0,0,1,137,44.11c-5,0-7.35-3-7.35-9.4V16.49c0-.93-.4-1.32-1.32-1.32H125c-1.06,0-1.72-.53-1.72-1.39s.66-1.32,1.72-1.32h3.31c.93,0,1.32-.4,1.32-1.32V7c0-1.39.66-2.19,1.79-2.19s1.79.79,1.79,2.19v4.17c0,.93.4,1.32,1.32,1.32h7.28c1.06,0,1.66.46,1.66,1.39s-.6,1.32-1.66,1.32h-7.28c-.93,0-1.32.4-1.32,1.32Z"
          transform="translate(0 0)" fill="#f37626"/>
    <path d="M151.4,28.48c-.86,0-1.32.4-1.32,1.26a13.47,13.47,0,0,0,1.13,4.9c2,4.37,5.76,6.69,10.93,6.69s9-2.52,10.2-7c.33-1.32.73-1.79,1.66-1.79a1.58,1.58,0,0,1,1.52,1.79c0,1.13-1.06,3.38-2.45,5.1-2.38,3.11-6.16,4.64-11.32,4.64-9.6,0-15.36-6.09-15.36-16.29s5.76-16.29,15.23-16.29c6.62,0,11.32,3.11,13.24,8.68A25.69,25.69,0,0,1,176.1,27c0,1.06-.53,1.52-1.59,1.52Zm19.74-2.72c.79,0,1.26-.33,1.26-1.06a11.45,11.45,0,0,0-3.4-7.61,11.67,11.67,0,0,0-15.5.33,12.59,12.59,0,0,0-3.25,7.35q0,1,1.19,1Z"
          transform="translate(0 0)" fill="#f37626"/>
    <path d="M186.14,18.74a8.31,8.31,0,0,1,2.58-4.5A11.09,11.09,0,0,1,196,11.52c1.72,0,2.72.66,2.72,1.72,0,.79-.4,1.26-1,1.26a4.76,4.76,0,0,1-.86-.07,3.13,3.13,0,0,0-1-.13,14.73,14.73,0,0,0-4.64,1.13c-3.31,1.52-5.1,5.17-5.1,10.46V39.14c0,.93.4,1.32,1.33,1.32h3.84c1.06,0,1.66.53,1.66,1.39s-.6,1.32-1.66,1.32H178.53c-1.06,0-1.72-.53-1.72-1.39s.66-1.32,1.72-1.32h2.72c.93,0,1.32-.4,1.32-1.32V16.49c0-.93-.4-1.32-1.32-1.32h-2.72c-1.06,0-1.72-.53-1.72-1.39s.66-1.32,1.72-1.32h6c1.13,0,1.59.46,1.59,1.59Z"
          transform="translate(0 0)" fill="#f37626"/>
    <path d="M225.1,14.24c0-1.13.53-1.79,1.46-1.79s1.46.66,1.46,1.79v7.95c0,1.13-.6,1.85-1.52,1.85s-1.46-.6-1.59-1.66c-.6-4.9-4.44-8.08-9.67-8.08-6.69,0-11.19,5.36-11.19,13.44s4.5,13.58,11.32,13.58c4.77,0,8.54-2.65,9.4-6.62.46-2.12.66-2.45,1.79-2.45a1.6,1.6,0,0,1,1.6,1.6s0,.1,0,.15A12.8,12.8,0,0,1,226,39.3c-2.05,3.11-5.89,4.83-10.73,4.83-9,0-14.9-6.42-14.9-16.36s5.76-16.22,14.57-16.22c4.9,0,8.87,2.38,10.2,6.16Z"
          transform="translate(0 0)" fill="#fff"/>
    <path d="M262.65,27.75c0,9.93-6,16.36-15.3,16.36-9.47,0-15.5-6.56-15.5-16.89,0-9.34,6.29-15.69,15.5-15.69C256.75,11.52,262.65,17.81,262.65,27.75Zm-27.09-.4c0,8.61,4.44,14,11.59,14S258.94,36.16,258.94,28c0-8.48-4.44-13.71-11.52-13.71S235.56,19.6,235.56,27.35Z"
          transform="translate(0 0)" fill="#fff"/>
    <path d="M272.38,18.34c1.59-4.37,5.36-6.82,10.79-6.82,7.15,0,11.06,3.58,11.06,10.13V39.14c0,.93.4,1.32,1.32,1.32h2.72c1.13,0,1.72.53,1.72,1.39s-.66,1.32-1.72,1.32H286.62c-1.06,0-1.72-.53-1.72-1.39s.66-1.32,1.66-1.32h2.78c.93,0,1.32-.4,1.32-1.32V22.65c0-5.43-3-8.34-8.54-8.34-6,0-9.73,4.11-9.73,10.73v14.1c0,.93.4,1.32,1.32,1.32h2.78c1.06,0,1.66.53,1.66,1.39s-.6,1.32-1.66,1.32H264.77c-1.06,0-1.72-.53-1.72-1.39s.66-1.32,1.72-1.32h2.72c.93,0,1.32-.4,1.32-1.32V16.49c0-.93-.4-1.33-1.32-1.33h-2.72c-1.06,0-1.72-.53-1.72-1.39s.66-1.32,1.72-1.32h6c1.13,0,1.59.46,1.59,1.59Z"
          transform="translate(0 0)" fill="#fff"/>
</svg>